<svg width="134" height="120" viewBox="0 0 134 120" fill="none" xmlns="http://www.w3.org/2000/svg">
<path d="M24.5 87.5V2C35.8044 4.18497 48.7336 4.44615 67.5 22.5C79.8653 8.63059 90.9502 6.60766 110 2V87.5C90.7755 90.7329 81.3073 95.0234 67.5 108.5C52.5612 95.7378 43.4427 90.4079 24.5 87.5Z" fill="#82A0B5"/>
<path d="M2 29V112.5H54C55.1488 115.83 56.2305 116.848 58.5 118H75C77.3368 116.416 78.2833 115.175 79.5 112.5H132V31M121 16V100C90.2526 100.402 74.9013 102.1 67.5 108.5M67.5 108.5C57.3723 102.024 43.5589 100.525 13 100V16M67.5 108.5C52.5612 95.7378 43.4427 90.4079 24.5 87.5V2C35.8044 4.18497 48.7336 4.44615 67.5 22.5M67.5 108.5C81.3073 95.0234 90.7755 90.7329 110 87.5V2C90.9502 6.60766 79.8653 8.63059 67.5 22.5M67.5 108.5V22.5" stroke="#E7F1F3" stroke-width="4" stroke-linecap="round" stroke-linejoin="round"/>
</svg>
